<?xml version="1.0" encoding="utf-8"?>
<!-- Generator: Adobe Illustrator 19.2.1, SVG Export Plug-In . SVG Version: 6.00 Build 0)  -->
<svg version="1.1" id="layer" xmlns="http://www.w3.org/2000/svg" xmlns:xlink="http://www.w3.org/1999/xlink" x="0px" y="0px"
	 viewBox="0 0 652 652" style="enable-background:new 0 0 652 652;" xml:space="preserve">
<style type="text/css">
	.st0{fill:#E5005A;}
</style>
<path class="st0" d="M607.4,289.7l-15,29l-14.8-29h-18.9l25.3,43.3v29.4H601v-29.4l25.3-43.3H607.4z M539.4,312.1
	c0.2,3-1.2,5.8-3.7,7.4c-2.1,1.6-4.9,2-8.7,2h-6.7v-18.7h6.7c3.9,0,6.6,0.3,8.7,1.9C538.2,306.3,539.6,309.1,539.4,312.1
	 M542.4,332.2c5.4-1.7,14.2-7,14.2-20.8c0.2-6.5-2.8-12.7-8-16.6c-4.7-3.5-11.1-5.2-19.2-5.2h-26.1v72.7h17.1v-27.8h5.4l15.3,27.8
	h19.8L542.4,332.2z M488.5,289.7h-17.2V332c0,5.2-0.4,9.2-2.8,12.1c-5.3,5.8-14.3,6.1-20.1,0.7c-0.3-0.2-0.5-0.5-0.7-0.7
	c-2.4-2.9-2.8-6.9-2.8-12.1v-42.3h-17.2V332c0,10.2,1.9,17.3,6.8,22.8c5,5.6,13,8.6,23.6,8.6s18.4-3.2,23.5-8.6s7-12.6,7-22.8
	L488.5,289.7z M418.9,289.7h-54.5v13.5h18.7v59.2h17v-59.2h18.7L418.9,289.7z M355.2,289.7h-16.6v32.9c0,7.7,0.3,15.9,0.3,15.9
	l-31.2-48.8h-18.2v72.7h16.6v-32.9c0-7.7-0.3-16.4-0.3-16.4l31.9,49.3h17.5L355.2,289.7z M276.9,348.5h-31.1v-16.8h28.5v-13.6h-28.5
	v-14.9h30.1v-13.6h-47.1v72.7h48V348.5z M213.3,340.4c-5.2,5.1-12.3,7.9-19.6,7.7c-11.9,0-21.8-8.1-21.8-22.3
	c0-14.2,9.5-22.4,21.8-22.4c7,0.1,13.6,2.8,18.7,7.6l5.3-14.1c-1.9-2-10-8.2-25-8.2c-21.2,0-38.1,14-38.1,37.5s16.7,37.6,38.1,37.6
	c14.8,0,22.5-6.1,26.2-9.9L213.3,340.4z"/>
<path class="st0" d="M134.1,337.4v-23.8c0.9-0.5,1.5-1.4,1.5-2.4c0-1.5-1.3-2.8-2.8-2.8h-0.2l-10-17.1c0.4-0.5,0.7-1.1,0.7-1.8
	c0-1.5-1.3-2.8-2.8-2.8c-0.6,0-1.1,0.2-1.6,0.5l-21.4-13.8c0-0.1,0-0.2,0-0.3c0-1.5-1.3-2.8-2.9-2.7c-0.9,0-1.8,0.5-2.3,1.3
	l-22.4,1.6c-0.5-0.6-1.3-1-2.1-1c-1.5,0-2.8,1.3-2.8,2.8c0,0.1,0,0.2,0,0.4L44,288.5c-0.5-0.4-1.1-0.6-1.7-0.5
	c-1.5,0-2.8,1.2-2.8,2.8c0,0.7,0.3,1.4,0.7,1.9l-10.4,18.2h-0.4c-1.5-0.2-2.9,1-3.1,2.5c-0.2,1.5,1,2.9,2.5,3.1l1.5,22.7
	c-1.5,0.5-2.3,2-1.8,3.5c0.4,1.2,1.5,2,2.7,1.9c0.3,0,0.5,0,0.8-0.1l10.3,22.1c-0.3,0.4-0.4,0.9-0.4,1.4c0,1.5,1.3,2.8,2.8,2.8
	c0.6,0,1.1-0.2,1.6-0.5l21.9,7.3l1.3,1.1c0.2,1.5,1.7,2.6,3.2,2.4c1.2-0.2,2.1-1,2.3-2.2h19.8c0.5,0.7,1.3,1.1,2.2,1.1
	c1.5,0,2.8-1.3,2.8-2.8c0-0.1,0-0.2,0-0.3l19.1-11.7c0.5,0.4,1.1,0.6,1.7,0.6c1.5,0,2.8-1.3,2.8-2.8c0-0.7-0.3-1.4-0.8-1.9l9.9-18.5
	h0.2c1.5,0,2.8-1.3,2.8-2.8C135.4,338.8,134.9,337.9,134.1,337.4z M133.3,337c-0.2,0-0.5,0-0.7,0c-1.5,0-2.8,1.2-2.8,2.7l-5.5,0.3
	c-0.1-0.9-0.6-1.6-1.4-2.1l10-24h0.3L133.3,337z M92.2,362.4c0-0.2-0.1-0.4-0.1-0.6l13.3-9.2l12.5,9.3c-0.1,0.3-0.2,0.7-0.2,1l0,0
	L92.2,362.4z M55.6,365.9l6.7-2.1l1.5,2.3c-0.4,0.5-0.5,1.1-0.5,1.7c0,0.2,0,0.5,0.1,0.7l-5-0.2L55.6,365.9z M57.1,368.2l-7.6-0.4
	l5.2-1.6L57.1,368.2z M31.9,314.9l16.7,8.3c-0.2,0.4-0.3,0.8-0.3,1.2c0,0.4,0.1,0.9,0.3,1.3l-6.7,6.1l-10.6-16.1
	C31.5,315.4,31.7,315.2,31.9,314.9z M68,286.5c0.1,1.4,1.3,2.6,2.8,2.6c0.2,0,0.3,0,0.5,0l3,6.6c-0.6,0.3-1.2,0.7-1.5,1.4l-27.6-6.3
	l0,0c0-0.1,0-0.2,0-0.3L68,286.5z M92.1,273.8c0.3,1.2,1.4,2,2.6,2c0.7,0,1.4-0.3,1.9-0.8l10.1,11.8c-0.3,0.2-0.5,0.4-0.7,0.7
	L95.6,283c0.1-0.3,0.2-0.7,0.2-1c0-1.5-1.3-2.8-2.8-2.8s-2.8,1.3-2.8,2.8c0,0.5,0.1,1,0.4,1.4l-4,3.4l-13.1-1.1
	c-0.1-0.4-0.3-0.7-0.5-1L92.1,273.8z M118.2,361.2l-12.2-9.1l8.1-5.6l5,14C118.7,360.6,118.5,360.9,118.2,361.2z M105.4,351.5
	l-4.9-3.7c0.1-0.3,0.2-0.6,0.2-1c0-0.6-0.2-1.2-0.6-1.7l8.6-10.3c0.5,0.4,1.1,0.6,1.7,0.6l3.6,10.2L105.4,351.5z M89.4,359.9
	c-0.8,0-1.5,0.3-2,0.9l-4-2.6c0.1-0.3,0.2-0.7,0.2-1c0,0,0-0.1,0-0.2l12.2-8.2c1.1,1.1,2.8,1.2,3.9,0.1c0.1-0.1,0.2-0.2,0.3-0.3
	l4.6,3.5l-13.1,9C91,360.3,90.3,360,89.4,359.9z M68.7,366.9c-0.3-0.7-0.8-1.3-1.5-1.7l0.5-3.1l10.9-3.4c0.1,0.2,0.3,0.4,0.4,0.5
	L68.7,366.9z M47,356.2l-1.3-16.4c0.3-0.1,0.6-0.2,0.8-0.3l7.1,11.1l-4.7,6.7C48.6,356.6,47.8,356.2,47,356.2z M45,291.6l27.5,6.2
	c0,0.3,0,0.6,0,0.9l-7.3,6.2c-0.5-0.5-1.2-0.7-1.9-0.7c-0.8,0-1.6,0.4-2.1,1l-7.5-2.9l0,0c0-1.5-1.3-2.8-2.8-2.8
	c-0.5,0-1,0.1-1.5,0.4l-5-7.2C44.6,292.5,44.9,292.1,45,291.6z M73.5,286.4l12.2,1.1l-9.6,8.1c-0.3-0.1-0.6-0.2-0.9-0.2h-0.2l-3-6.7
	C72.9,288.3,73.5,287.4,73.5,286.4z M130,311.3c0,0.4,0.1,0.7,0.3,1.1l-9.1,4.5c-0.5-0.7-1.4-1.1-2.2-1.1c-0.2,0-0.4,0-0.6,0
	l-1.9-5.4L130,311.3z M117.5,316.2c-0.9,0.5-1.4,1.4-1.4,2.4c0,0,0,0.1,0,0.2l-5.8,1.5l-4.7-8.5c0.3-0.5,0.5-1.1,0.5-1.6
	c0-0.1,0-0.2,0-0.4l9.3,0.6L117.5,316.2z M108.1,334.2l-8.5,10.3c-0.5-0.3-1-0.5-1.6-0.5c-0.6,0-1.1,0.2-1.6,0.5l-7.8-6.1
	c0.7-1.2,0.4-2.7-0.7-3.6l1.7-6.1h0.3c1,0,2-0.6,2.4-1.4l15.5,4.2c-0.1,0.3-0.2,0.6-0.2,1C107.6,333.2,107.7,333.7,108.1,334.2z
	 M52.1,321.8l5.1-6.4l11.7,3.9l2.4,6.1c-0.5,0.4-0.9,0.9-1,1.6l-16.4-2.7C53.8,323.1,53.1,322.2,52.1,321.8z M75.2,301
	c0.4,0,0.9-0.1,1.3-0.3l3.7,7.5L66,307l0,0c0-0.5-0.1-1-0.4-1.4l7.1-6C73.2,300.5,74.2,301.1,75.2,301z M107.5,291.7l-3.5,15.7
	c-0.2,0-0.4,0-0.6,0c-1.4,0-2.6,1.1-2.8,2.5l-10-0.8l16.4-17.5C107.2,291.7,107.4,291.7,107.5,291.7L107.5,291.7z M100.7,310.7
	c0.1,0.3,0.2,0.7,0.4,1l-10.4,11.7c-0.2-0.1-0.4-0.1-0.5-0.1l-0.6-13.1l0.4-0.4L100.7,310.7z M80.8,354.3h-0.2l-6.8-24.1
	c0.6-0.2,1.1-0.6,1.4-1.1l8.4,6.6c-0.2,0.4-0.4,0.9-0.4,1.4c0,1.3,0.9,2.5,2.2,2.7l-4.2,14.5C81.1,354.3,81,354.3,80.8,354.3z
	 M75.7,326.9c-0.1-0.4-0.3-0.8-0.6-1.2l3.1-3.3l9,3c0,0.1,0,0.2,0,0.2L75.7,326.9z M88.9,323.4l-4.1-8.1l3.9-4.2l0.5,12.3
	L88.9,323.4z M88.2,323.8c-0.3,0.2-0.5,0.4-0.7,0.7l0,0l-6.7-4.9l3.4-3.6L88.2,323.8z M84.9,323.6l-6-2l1.4-1.4L84.9,323.6z
	 M78,321.3l-8.5-2.8l-3.6-9l13.7,10.2L78,321.3z M77.3,322.1l-2.9,3.1c-0.4-0.3-0.9-0.4-1.4-0.4c-0.3,0-0.6,0.1-0.9,0.2l-2.1-5.3
	L77.3,322.1z M86.1,334.3c-0.7,0-1.4,0.3-1.9,0.8l-8.5-6.7c0.1-0.2,0.1-0.5,0.1-0.7l11.2-1.2c0.1,1,0.8,1.8,1.7,2.2l-1.7,5.8
	C86.7,334.4,86.4,334.3,86.1,334.3z M88.7,309.9l-4.3,4.6l-2.7-5.3l7,0.6L88.7,309.9z M83.8,315.2l-3.7,3.9l-14.4-10.7
	c0.1-0.2,0.2-0.3,0.2-0.5l14.8,1.2L83.8,315.2z M61.9,309.5c0.4,0.2,0.9,0.4,1.4,0.4c0.6,0,1.1-0.2,1.6-0.5l3.6,8.8l-10.6-3.5
	L61.9,309.5z M53.8,325l16.4,2.7c0,0.1,0,0.2,0,0.4L56,333l-4-6C52.9,326.7,53.6,326,53.8,325z M70.5,328.9c0.1,0.1,0.2,0.3,0.3,0.4
	l-8.1,9.7c-0.4-0.2-0.8-0.3-1.2-0.3c-0.5,0-1,0.1-1.5,0.4l-3.6-5.5L70.5,328.9z M63.5,339.5l8-9.6l0.2,0.1l-2.6,17.1l-5.2-4.1
	c0.3-0.5,0.5-1,0.5-1.6C64.4,340.8,64,340.1,63.5,339.5z M72.4,330.3c0.2,0,0.4,0,0.6,0l0,0l6.8,24.1c-0.3,0.1-0.5,0.3-0.7,0.4
	l-9.3-7.2L72.4,330.3z M78.5,355.6c-0.3,0.5-0.5,1-0.5,1.5c0,0.3,0,0.5,0.1,0.8l-10.4,3.3l1.9-12.5L78.5,355.6z M82.1,354.6
	l4.3-14.7c0.6-0.1,1.2-0.3,1.6-0.7l7.6,6c-0.4,0.5-0.6,1.1-0.6,1.7c0,0.4,0.1,0.9,0.3,1.2L83.5,356
	C83.2,355.4,82.7,354.9,82.1,354.6z M91.5,323.8l10.2-11.5c0.5,0.4,1.2,0.7,1.9,0.7c0.6,0,1.2-0.2,1.6-0.5l4.4,8.1L92.5,325
	C92.2,324.5,91.9,324.1,91.5,323.8z M106,309l6.4-8.5l3,9.1L106,309z M105.5,308.3c-0.2-0.2-0.4-0.4-0.7-0.5l3.5-15.9
	c0.4,0,0.8-0.1,1.1-0.2l2.6,7.8L105.5,308.3z M106.4,291.1L89.6,309l0,0l-0.2-3.3c1.5-0.2,2.6-1.5,2.5-3.1c-0.1-1.1-0.9-2-2-2.4
	l2-12.2l13.6,1.2C105.6,290,105.9,290.6,106.4,291.1z M105.6,288.4l-13.6-1.2l0.4-2.5c0.2,0,0.3,0,0.5,0c0.8,0,1.6-0.4,2.2-1
	l10.5,4.6C105.6,288.3,105.6,288.4,105.6,288.4z M91.1,284c0.2,0.2,0.4,0.3,0.6,0.4l-0.4,2.7l-3.5-0.3L91.1,284z M91.1,288l-2,12.1
	c-1.5-0.1-2.9,1-3.1,2.6c-0.1,1.5,1,2.9,2.6,3.1l0.1,3.3l-7.5-0.6l-4.1-8.1c1.1-1.1,1.1-2.9,0-4c-0.1-0.1-0.2-0.2-0.3-0.3l9.9-8.4
	L91.1,288z M50.7,305.2c1.2,0,2.3-0.7,2.7-1.9l7.3,2.7c-0.1,0.3-0.2,0.7-0.2,1c0,0.7,0.3,1.4,0.8,1.9l-4.3,5.4l-5.9-2l-0.5-7.2H50.7
	z M56.3,315.1l-4.7,5.9l-0.6-7.6L56.3,315.1z M51.1,327.2l4.1,6.1l-7.5,2.6c-0.2-0.3-0.4-0.6-0.6-0.8l3.6-7.9
	C50.8,327.2,51,327.2,51.1,327.2z M47.2,339c0.5-0.5,0.7-1.2,0.7-1.9c0-0.1,0-0.3,0-0.4l7.8-2.7l3.7,5.8c-0.7,0.8-0.9,2.1-0.4,3.1
	l-4.9,6.9L47.2,339z M59.5,343.6c0.5,0.5,1.2,0.8,2,0.8c0.6,0,1.2-0.2,1.7-0.6l5.6,4.3l-2,13.3l-4.2,1.3l-8-12.2L59.5,343.6z
	 M66.7,362.4l-0.4,2.6H66c-0.6,0-1.2,0.2-1.6,0.5l-1.3-2L66.7,362.4z M111.2,335.3c1.5-0.4,2.3-2,1.9-3.5c-0.4-1.5-2-2.3-3.5-1.9
	c-0.5,0.2-1,0.5-1.4,0.9l-15.6-4.3c0-0.2,0-0.4,0-0.6c0-0.1,0-0.2,0-0.3l17.4-4.5l9.3,17.3c-0.4,0.5-0.6,1.1-0.6,1.7
	c0,0.6,0.2,1.1,0.5,1.6l-4.7,3.2L111.2,335.3z M110.8,321.1l5.6-1.4c0.4,1,1.3,1.7,2.4,1.7l2.3,16.1c-0.4,0.1-0.8,0.2-1.1,0.4
	L110.8,321.1z M122,337.5l-2.4-16.2c1.3-0.3,2.2-1.4,2.2-2.7c0-0.3-0.1-0.6-0.2-0.9l9.2-4.6c0.4,0.4,0.8,0.6,1.4,0.8l-9.9,23.6H122z
	 M130.1,310.5l-13.7-0.8l-3.4-10l2.6-3.5l15.2,13.1C130.5,309.6,130.2,310,130.1,310.5L130.1,310.5z M112.6,298.7l-2.3-7l4.6,4
	L112.6,298.7z M42.3,293.6c0.4,0,0.8-0.1,1.2-0.3l5.1,7.2c-0.5,0.5-0.7,1.2-0.7,1.9c0,1.1,0.7,2.1,1.7,2.6l0.5,7.1l-6.9-2.3
	c-0.1-1.3-1.1-2.3-2.4-2.5L42.3,293.6L42.3,293.6z M43.2,310.7l7.1,2.4l0.7,8.5c-0.2,0-0.5,0.1-0.7,0.1l-7.5-10
	C43,311.4,43.1,311.1,43.2,310.7z M49.1,326.4c0.2,0.2,0.4,0.4,0.7,0.5l-3.5,7.7c-0.4-0.2-0.8-0.3-1.2-0.3c-0.5,0-0.9,0.1-1.3,0.3
	l-1.4-2.2L49.1,326.4z M43.1,335.1c-0.5,0.5-0.8,1.2-0.8,2c0,0.2,0,0.4,0,0.6l-7.9,2l7.3-6.7L43.1,335.1z M33.8,340.8l8.8-2.2
	c0.5,0.8,1.3,1.3,2.2,1.4l1.3,16.3c-0.3,0.1-0.7,0.2-1,0.4l-11.6-13.4c0.3-0.4,0.5-0.9,0.5-1.5C34.1,341.4,34,341.1,33.8,340.8
	L33.8,340.8z M49.4,358.1l4.7-6.8l7.6,11.8l-6.9,2.2l-5.6-4.8c0.3-0.4,0.4-0.9,0.4-1.4C49.6,358.7,49.6,358.4,49.4,358.1z
	 M63.8,369.3c0.9,1.3,2.6,1.6,3.9,0.7c0.7-0.5,1.2-1.4,1.2-2.3l10.6-8l-6.7,15.7c-0.2,0-0.4,0-0.6,0c-1.1,0-2.2,0.7-2.6,1.7l-1-0.3
	l-9.1-7.7L63.8,369.3z M74,376l-0.4-0.3l6.8-15.8h0.4c0.8,0,1.6-0.4,2.2-1l3.9,2.6c-0.2,0.4-0.3,0.8-0.3,1.3c0,0.6,0.2,1.2,0.6,1.7
	L74,376z M120.3,360h-0.4l-5-14.2l5-3.4c0.3,0.2,0.6,0.4,0.9,0.5L120.3,360z M131.5,308.6l-15.4-13.2l2.8-3.7c0.5,0.3,1,0.5,1.6,0.5
	c0.5,0,1.1-0.2,1.5-0.4l9.8,16.8L131.5,308.6z M118.2,287.7c-0.8,1-0.8,2.5,0,3.5l-2.8,3.7l-4.8-4.2c0.9-1.2,0.7-3-0.6-3.9
	c-0.5-0.4-1.1-0.6-1.7-0.6c-0.3,0-0.6,0.1-1,0.2l-10.2-12.1l0.1-0.2L118.2,287.7z M91.9,272.5c0,0.1,0,0.3,0,0.4l-19.5,11.2
	c-0.5-0.3-1-0.5-1.6-0.5h-0.3l-1.6-5.9c1-0.4,1.7-1.5,1.7-2.6c0-0.4-0.1-0.7-0.2-1L91.9,272.5z M67.7,277.9H68l1.6,5.8
	c-0.8,0.3-1.4,1-1.6,1.9l-23.1,4.1c-0.1-0.2-0.2-0.3-0.3-0.5l20.6-13C65.7,277.2,66.7,277.9,67.7,277.9z M40.9,293.1
	c0.2,0.1,0.4,0.2,0.6,0.3L40,307.3c-1.5,0.1-2.7,1.5-2.6,3s1.5,2.7,3,2.6l0,0c0.6,0,1.1-0.2,1.6-0.5l7.4,9.9
	c-0.1,0.1-0.3,0.2-0.4,0.3l-16.8-8.4c0-0.2,0-0.3,0-0.5c0-1.1-0.6-2.1-1.6-2.5L40.9,293.1z M29.7,316.4c0.3,0,0.6-0.1,0.9-0.2
	l10.7,16.2l-8.1,7.5c-0.5-0.5-1.2-0.7-1.9-0.7l0,0L29.7,316.4z M33.1,343.9l11.6,13.3c-0.9,1.2-0.7,3,0.5,3.9
	c0.5,0.4,1.1,0.6,1.7,0.6c0.7,0,1.4-0.3,1.9-0.7l5.3,4.5l-6.4,2c-0.2-1.5-1.6-2.6-3.2-2.4c-0.5,0.1-1,0.3-1.4,0.7l-10.1-21.7
	L33.1,343.9z M47,369.7c0.2-0.3,0.4-0.7,0.5-1.1l10.6,0.5l8.3,7L47,369.7z M75,378c0-0.5-0.2-0.9-0.4-1.3L87.8,365
	c0.5,0.3,1.1,0.5,1.6,0.5c0.2,0,0.5,0,0.7-0.1l4.9,9.6c-0.6,0.5-1,1.3-1,2.1c0,0.3,0.1,0.6,0.1,0.9H75z M96.9,374.3
	c-0.4,0-0.8,0.1-1.1,0.2l-4.9-9.5c0.7-0.4,1.1-1.1,1.3-1.9l25.6,0.6c0.1,0.2,0.2,0.5,0.3,0.7L99.5,376C99.1,375,98,374.3,96.9,374.3
	L96.9,374.3z M121.8,360.4c-0.2-0.1-0.4-0.2-0.6-0.3l0.4-17.1l0,0c1.4,0,2.5-1,2.7-2.3l5.6-0.3c0.2,0.8,0.8,1.5,1.6,1.9L121.8,360.4
	z"/>
</svg>
